<svg xmlns="http://www.w3.org/2000/svg" width="400" height="560" viewBox="0 0 400 560">
  <defs>
    <radialGradient id="bg" cx="50%" cy="40%" r="65%">
      <stop offset="0%" stop-color="#6d5aa8" stop-opacity="0.55" />
      <stop offset="60%" stop-color="#0f0d18" />
      <stop offset="100%" stop-color="#050408" />
    </radialGradient>
    <radialGradient id="core" cx="50%" cy="42%" r="30%">
      <stop offset="0%" stop-color="#ffffff" stop-opacity="0.9" />
      <stop offset="50%" stop-color="#6d5aa8" stop-opacity="0.8" />
      <stop offset="100%" stop-color="#000000" stop-opacity="0" />
    </radialGradient>
  </defs>
  <rect width="400" height="560" fill="url(#bg)" />
  <circle cx="200" cy="230" r="140" fill="url(#core)" />
  <circle cx="200" cy="230" r="105" fill="none" stroke="#6d5aa8" stroke-width="1.5" stroke-dasharray="6 3" opacity="0.75" />
  <circle cx="200" cy="230" r="85" fill="none" stroke="#e8c87b" stroke-width="1" opacity="0.8" />
  <polygon points="200,145 220,210 285,230 220,250 200,315 180,250 115,230 180,210" fill="none" stroke="#6d5aa8" stroke-width="1.2" opacity="0.8" />
  <polygon points="200,145 220,210 285,230 220,250 200,315 180,250 115,230 180,210" fill="none" stroke="#e8c87b" stroke-width="1" transform="rotate(45 200 230)" opacity="0.6" />
  <circle cx="200" cy="230" r="16" fill="#6d5aa8" opacity="0.9" />
  <circle cx="200" cy="230" r="8" fill="#ffffff" />
</svg>
